<svg version="1.1" xmlns="http://www.w3.org/2000/svg" style="display: block;" viewBox="0 0 1024 1024" width="256" height="256" preserveAspectRatio="none">
<defs>
	<linearGradient id="Gradient1" gradientUnits="userSpaceOnUse" x1="690.374" y1="619.596" x2="529.769" y2="519.009">
		<stop class="stop0" offset="0" stop-opacity="1" stop-color="rgb(206,156,70)"/>
		<stop class="stop1" offset="1" stop-opacity="1" stop-color="rgb(255,202,96)"/>
	</linearGradient>
</defs>
<path transform="translate(0,0)" fill="rgb(14,70,100)" d="M 321.004 799.8 C 320.306 776.572 320.827 753.106 320.803 729.847 L 320.823 580.533 L 320.717 460.761 C 320.706 437.215 320.051 413.493 321.203 389.978 C 321.485 384.215 321.628 369.317 325.688 365.1 C 335.135 355.287 408.816 332.295 425.845 327.536 C 435.823 324.748 446.223 323.262 456.113 320.197 C 473.484 314.813 486.926 305.347 505.593 303.919 C 517.652 311.726 527.467 320.188 530.769 334.939 C 531.604 338.67 531.483 352.949 533.92 354.72 C 541.635 360.324 644.451 349.583 663.838 360.288 C 671.09 364.292 673.971 370.675 675.813 378.501 C 678.355 389.296 678.045 401 678.3 412.044 C 704.121 410.689 721.292 429.372 738.528 443.812 C 768.954 469.303 759.119 484.178 746.02 514.821 C 743.937 519.693 744.471 531.919 741.268 539.078 C 730.001 548.04 709.98 525.871 707.241 557.88 C 706.248 569.487 706.945 575.739 709.539 587.318 C 719.034 579.735 730.043 571.996 738.29 563.538 C 752.082 549.393 753.501 527.427 779.029 529.697 C 795.769 531.186 803.248 551.013 800.821 565.266 C 796.419 591.121 782.346 610.078 763.879 627.699 C 756.993 634.519 750.891 643.741 741.958 650.043 C 734.016 655.646 721.603 658.71 719.944 669.015 C 718.902 675.496 719.674 698.931 721.557 704.331 C 727.873 710.214 736.451 703.737 740.445 711.281 C 739.749 714.899 740.462 713.565 737.502 716.226 C 732.224 717.918 712.262 713.396 716.523 727.124 C 718.491 733.462 729.403 731.412 728.659 738.814 C 722.77 745.094 717.752 740.842 710.541 737.651 C 698.656 746.608 691.757 752.741 678.265 759.253 C 678.044 775.624 677.267 797.271 678.382 813.234 C 699.723 802.439 710.967 796.786 735.977 803.266 C 751.332 807.245 764.857 825.916 772.835 826.223 L 771.387 827.584 C 773.766 833.905 778.323 840.06 780.481 846.133 C 782.403 851.541 782.265 874.259 785.683 877.548 C 783.783 900.924 768.336 914.576 753.315 929.584 C 776.265 927.15 821.457 928.548 846.149 928.49 L 922.416 928.499 C 930.423 928.501 972.627 927.617 976.246 930.513 C 978.431 934.087 978.5 939.545 978.914 943.854 C 966.367 945.474 951.78 945.167 939.004 945.283 C 919.313 945.408 899.623 945.664 879.935 946.051 C 803.712 948.067 727.458 948.626 651.214 947.727 C 624.414 947.481 597.541 946.288 570.871 946.075 L 180.807 946.007 L 92.3344 945.906 C 81.3673 945.92 49.3123 951.291 46.6321 936.674 C 45.7953 932.111 51.451 928.602 55.699 928.561 C 76.6255 928.363 97.5901 928.507 118.531 928.491 C 168.501 928.84 218.472 928.739 268.439 928.186 L 267.397 927.286 C 253.17 914.936 238.866 896.157 237.465 876.699 C 240.671 853.837 241.606 846.887 254.287 827.958 L 253.86 826.278 C 262.03 823.216 261.426 818.592 266.147 814.521 C 279.864 802.696 304.153 800.427 321.004 799.8 z M 700.157 726.122 L 702.927 714.88 C 700.604 709.273 692.314 709.313 690.422 713.996 C 691.89 721.434 695.251 721.254 700.157 726.122 z M 724.758 897.366 C 732.498 893.914 736.526 892.104 742.854 886.029 C 746.127 874.782 748.16 865.024 742.006 853.835 C 737.989 846.686 731.257 841.46 723.335 839.34 C 719.844 838.385 712.395 838.725 708.72 839.101 C 699.68 846.619 690.429 855.953 689.457 868.49 C 687.804 889.805 705.07 900.488 724.758 897.366 z M 298.268 839.46 C 295.888 841.107 292.385 843.406 290.575 845.209 C 275.193 860.537 273.189 891.535 298.358 897.823 C 301.108 898.51 310.339 898.045 313.453 898.176 C 340.78 889.145 339.722 852.639 315.451 840.407 C 310.369 837.846 303.855 838.947 298.268 839.46 z M 678.772 929.164 C 663.257 916.473 650.868 898.065 648.78 877.807 C 648.674 876.773 648.586 875.736 648.517 874.699 C 641.033 874.342 634.097 874.428 626.602 874.522 C 625.409 880.367 626.995 883.408 624.467 889.764 C 613.328 917.776 589.254 914.856 574.952 891.209 C 572.567 887.267 569.234 880.612 565.929 876.999 C 552.916 874.728 548.086 874.07 535.129 874.159 L 534.672 874.862 C 527.215 886.538 525.378 904.52 505.553 910.458 C 498.553 912.554 477.249 903.066 468.903 900.476 C 449.512 894.457 430.877 890.207 411.037 885.882 C 400.476 883.58 386.498 881.618 377.04 877.198 C 371.656 896.14 360.457 913.2 348.241 928.36 C 394.066 929.518 448.698 929.025 494.75 928.395 L 609.979 928.424 C 629.394 928.401 660.432 927.688 678.772 929.164 z"/>
<path transform="translate(0,0)" fill="rgb(93,177,100)" d="M 501.206 326.248 C 504.763 325.904 505.198 325.19 507.517 326.861 C 510.066 341.561 509.162 400.168 509.079 416.981 L 509.086 566.431 L 509.164 705.587 C 509.318 739.505 510.54 771.901 509.502 806.137 C 508.644 834.446 510.407 858.574 507.625 887.536 C 475.178 885.678 457.612 876.88 427.026 867.783 C 411.989 863.31 396.728 860.184 381.528 855.163 C 371.987 851.351 365.583 837.853 358.893 829.648 C 352.44 821.735 344.351 813.827 338.532 805.811 C 337.08 788.295 337.991 758.014 338.01 739.66 L 338.065 617.183 L 337.987 467.787 C 337.98 447.938 336.572 396.472 340.693 380.317 C 349.219 375.434 390.438 363.679 402.684 359.512 C 432.039 349.522 471.435 332.321 501.206 326.248 z"/>
<path transform="translate(0,0)" fill="rgb(26,69,80)" d="M 465.621 587.185 C 466.829 587.051 471.739 586.506 472.568 586.704 C 488.246 590.436 487.333 613.608 479.857 624.239 C 477.604 627.443 474.881 629.564 472.012 631.858 L 469.431 632.506 C 452.865 627.904 448.743 597.747 465.621 587.185 z"/>
<path transform="translate(0,0)" fill="url(#Gradient1)" d="M 577.917 437.696 C 581.731 434.931 590.719 431.613 595.282 429.301 C 625.116 414.185 647.756 418.273 678.957 425.238 C 680.456 429.009 682.675 434.736 684.643 438.135 C 689.417 450.615 691.714 460.898 694.059 473.979 C 694.75 477.832 696.118 487.002 697.068 490.12 L 697.124 491.005 C 697.878 501.726 703.029 514.737 703.146 524.69 C 703.278 535.886 697.458 548.662 696.129 560.753 C 694.092 579.298 697.279 598.511 697.017 616.392 C 688.52 624.699 683.673 628.295 673.313 634.191 C 668.709 632.414 664.105 630.649 659.466 628.94 C 646.419 624.134 631.607 625.156 619.243 618.614 C 615.324 616.541 610.542 612.356 606.955 609.514 C 595.647 607.948 595.383 592.979 582.164 598.904 C 575.983 615.452 574.807 630.728 570.633 647.418 C 566.898 662.352 560.077 673.93 559.119 690.197 L 562.191 692.244 C 561.883 695.096 562.034 694.16 559.771 696.727 L 558.226 697.274 C 558.071 699.818 557.874 701.379 557.44 703.891 C 554.707 705.131 532.402 706.361 527.684 706.742 C 528.978 679.029 525.941 649.095 529.009 620.862 C 540.914 608.24 551.544 603.701 562.295 587.241 C 578.75 562.046 581.72 529.678 575.52 500.31 C 571.62 492.593 576.145 474.017 572.138 468.085 L 570.493 467.787 L 566.57 471.156 C 567.848 465.231 571.511 449.467 574.435 444.888 L 575.364 445.733 C 576.627 444.081 577.375 439.915 577.917 437.696 z"/>
<path transform="translate(0,0)" fill="rgb(26,55,52)" d="M 583.903 590.005 C 592.678 596.879 598.768 601.822 606.955 609.514 C 595.647 607.948 595.383 592.979 582.164 598.904 C 575.983 615.452 574.807 630.728 570.633 647.418 C 566.898 662.352 560.077 673.93 559.119 690.197 L 562.191 692.244 C 561.883 695.096 562.034 694.16 559.771 696.727 L 558.226 697.274 C 558.153 694.662 558.217 693.968 557.514 691.487 C 553.698 688.302 547.657 691.141 541.654 688.023 C 539.069 685.592 539.033 684.842 538.347 681.511 L 539.605 680.219 C 544.126 679.503 552.403 681.677 557.212 682.664 C 559.575 669.974 566.327 658.084 568.938 647.356 C 574.515 624.436 573.554 612.133 583.903 590.005 z"/>
<path transform="translate(0,0)" fill="rgb(73,63,19)" d="M 566.57 471.156 C 567.848 465.231 571.511 449.467 574.435 444.888 L 575.364 445.733 C 574.347 457.775 577.254 493.078 575.52 500.31 C 571.62 492.593 576.145 474.017 572.138 468.085 L 570.493 467.787 L 566.57 471.156 z"/>
<path transform="translate(0,0)" fill="rgb(26,69,80)" d="M 617.116 513.215 C 626.332 509.538 651.012 502.391 658.193 511.282 C 661.505 520.774 647.129 532.539 650.746 542.137 C 656.598 548.934 666.182 546.259 672.716 542.139 C 676.768 543.533 677.177 543.685 679.945 546.832 L 680.348 547.283 C 680.575 547.557 680.803 547.831 681.031 548.105 C 678.352 551.902 676.066 555.1 673.864 559.392 C 668.474 569.899 664.828 588.648 651.351 591.407 C 646.86 592.327 640.34 589.979 637.055 587.249 C 624.033 576.429 624.215 568.043 609.748 556.855 C 612.418 555.523 614.02 554.07 616.32 552.218 C 623.998 553.88 633.862 546.088 639.946 541.785 C 630.054 532.582 623.2 525.174 617.116 513.215 z"/>
<path transform="translate(0,0)" fill="rgb(213,125,100)" d="M 646.01 555.405 C 669.986 555.459 665.273 573.911 649.499 581.517 C 637.489 583.158 629.651 568.156 635.959 558.655 C 637.996 555.585 642.612 555.691 646.01 555.405 z"/>
<path transform="translate(0,0)" fill="rgb(57,63,46)" d="M 661.666 467.217 C 669.316 466.709 675.718 466.817 680.249 475.262 C 681.215 477.063 680.244 478.298 679.447 480.072 C 675.252 482.237 675.128 481.426 669.749 481.265 C 663.209 480.311 658.093 485.601 654.333 480.967 C 653.011 472.85 655.252 471.135 661.666 467.217 z"/>
<path transform="translate(0,0)" fill="rgb(3,6,4)" d="M 604.557 475.916 C 609.588 477.659 615.338 482.628 616.158 488.039 C 615.066 491.066 615.839 489.99 612.951 491.994 C 609.25 491.322 607.418 487.93 605.033 484.702 L 603.377 484.539 L 601.852 486.644 C 598.897 490.329 594.648 495.976 589.838 492.684 C 587.44 483.926 597.981 478.359 604.557 475.916 z"/>
<path transform="translate(0,0)" fill="rgb(57,63,46)" d="M 672.716 542.139 C 674.326 540.435 678.912 535.69 679.814 533.869 C 681.746 529.972 679.219 525.346 682.662 522.59 C 685.473 522.882 686.533 522.816 688.891 524.524 C 692.528 530.42 684.56 543.017 681.031 548.105 C 680.803 547.831 680.575 547.557 680.348 547.283 L 679.945 546.832 C 677.177 543.685 676.768 543.533 672.716 542.139 z"/>
<path transform="translate(0,0)" fill="rgb(57,63,46)" d="M 609.748 556.855 C 604.948 552.993 596.94 545.601 599.37 538.601 L 600.975 538.304 C 604.484 540.004 612.538 548.683 616.32 552.218 C 614.02 554.07 612.418 555.523 609.748 556.855 z"/>
<path transform="translate(0,0)" fill="rgb(244,157,48)" d="M 568.322 690.555 C 566.917 689.737 567.569 690.089 565.535 690.164 C 563.701 686.24 567.44 676.232 569.502 672.325 C 580.64 651.212 582.154 627.433 588.91 605.404 L 589.777 604.946 C 590.515 606.942 590.426 605.894 589.66 608.19 C 599.933 616.617 609.595 625.633 616.715 636.889 C 636.591 637.117 650.429 638.911 669.679 643.64 C 680.167 646.217 700.005 634.311 708.815 627.667 C 707.858 642.438 706.027 656.604 704.972 671.249 C 704.227 681.592 705.75 694.547 705.224 704.976 C 704.703 709.19 703.192 712.47 702.927 714.88 C 700.604 709.273 692.314 709.313 690.422 713.996 C 691.89 721.434 695.251 721.254 700.157 726.122 C 699.052 730.298 698.94 730.984 695.778 733.855 C 686.665 742.974 664.918 748.725 652.584 751.86 C 629.138 757.818 575.91 736.361 571.632 710.995 C 569.052 707.836 569.723 709.336 569.087 705.31 C 569.106 701.051 568.569 694.946 568.322 690.555 z"/>
<path transform="translate(0,0)" fill="rgb(3,6,4)" d="M 568.322 690.555 C 566.917 689.737 567.569 690.089 565.535 690.164 C 563.701 686.24 567.44 676.232 569.502 672.325 C 580.64 651.212 582.154 627.433 588.91 605.404 L 589.777 604.946 C 590.515 606.942 590.426 605.894 589.66 608.19 C 586.489 622.619 583.104 639.211 578.85 653.271 C 575.913 662.984 570.937 674.426 567.42 684.289 C 574.393 685.723 580.85 686.319 584.447 693.041 C 591.125 705.523 580.563 709.164 571.632 710.995 C 569.052 707.836 569.723 709.336 569.087 705.31 C 569.106 701.051 568.569 694.946 568.322 690.555 z"/>
<path transform="translate(0,0)" fill="rgb(205,175,138)" d="M 568.322 690.555 C 575.72 693.181 578.222 697.168 583.236 703.102 C 579.227 703.655 572.824 704.349 569.087 705.31 C 569.106 701.051 568.569 694.946 568.322 690.555 z"/>
<path transform="translate(0,0)" fill="rgb(57,63,46)" d="M 705.224 704.976 C 704.703 709.19 703.192 712.47 702.927 714.88 C 700.604 709.273 692.314 709.313 690.422 713.996 C 691.89 721.434 695.251 721.254 700.157 726.122 C 699.052 730.298 698.94 730.984 695.778 733.855 C 686.41 728.155 675.831 721.12 687.249 708.583 C 692.172 703.177 698.444 704.459 705.224 704.976 z"/>
<path transform="translate(0,0)" fill="rgb(3,6,4)" d="M 631.494 697.682 C 636.32 697.558 640.441 698.277 645.03 699.642 C 650.855 705.341 639.055 705.989 639.833 716.032 C 645.944 724.516 652.79 719.508 659.043 714.827 C 667.07 723.174 653.762 729.932 643.769 727.433 C 642.032 726.804 636.677 724.907 635.038 724.847 C 628.104 724.629 617.894 727.948 613.645 720.24 C 611.756 716.812 609.11 709.769 611.542 706.298 C 616.355 707.574 618.455 718.341 628.361 717.412 C 631.263 711.424 626.98 705.212 631.494 697.682 z"/>
<path transform="translate(0,0)" fill="rgb(3,6,4)" d="M 666.496 678.071 C 678.06 677.467 689.346 689.122 681.845 694.591 C 678.367 694.683 676.16 692.494 673.31 690.38 C 672.116 689.574 670.185 688.533 668.882 687.772 C 663.862 687.802 663.811 689.807 658.173 692.207 L 656.901 690.903 C 656.589 687.256 656.319 686.241 657.73 682.834 C 660.053 680.054 663.071 679.329 666.496 678.071 z"/>
<path transform="translate(0,0)" fill="rgb(3,6,4)" d="M 608.986 668.068 C 616.568 669.352 627.508 678.487 622.114 685.205 C 618.386 684.465 618.927 683.998 615.705 680.876 C 609.447 674.583 607.089 679.807 598.699 676.449 L 598.085 674.655 C 600.904 669.44 603.553 669.306 608.986 668.068 z"/>
<path transform="translate(0,0)" fill="rgb(244,157,48)" d="M 529.602 721.494 C 539.906 719.911 548.602 718.01 558.723 715.735 C 580.242 751.5 619.287 770.531 660.946 763.757 C 654.453 785.089 651.781 793.721 636.533 810.813 C 631.517 815.778 626.597 821.129 620.655 824.866 C 621.469 818.459 622.04 811.635 622.683 805.177 C 621.634 802.457 621.447 801.356 618.88 799.821 C 617.417 799.654 616.007 799.133 615.306 800.106 C 608.396 809.708 609.616 837.859 608.85 847.475 C 607.986 858.324 612.661 888.283 608.571 894.944 C 588.331 911.341 575.532 843.447 573.602 832.919 C 570.068 833.326 566.539 833.781 563.017 834.284 C 556.596 833.413 548.188 833.26 541.554 832.969 L 528.061 833.155 C 527.654 803.409 526.482 754.993 528.014 724.007 C 528.642 723.013 529.172 722.175 529.602 721.494 z"/>
<path transform="translate(0,0)" fill="rgb(26,55,52)" d="M 563.017 834.284 C 561.349 827.844 557.586 813.367 561.947 808.172 C 564.906 807.699 566.751 807.1 569.482 808.42 C 571.133 811.282 573.023 828.724 573.602 832.919 C 570.068 833.326 566.539 833.781 563.017 834.284 z"/>
<path transform="translate(0,0)" fill="rgb(204,143,62)" d="M 622.683 805.177 C 628.836 809.654 629.063 810.011 636.533 810.813 C 631.517 815.778 626.597 821.129 620.655 824.866 C 621.469 818.459 622.04 811.635 622.683 805.177 z"/>
<path transform="translate(0,0)" fill="rgb(244,157,48)" d="M 775.468 544.048 C 782.74 545.453 790.488 550.261 789.395 558.741 C 785.7 587.406 760.532 610.624 741.88 631.007 C 738.976 634.18 729.316 643.85 725.315 643.894 L 725.222 640.758 C 725.888 635.226 726.577 623.502 724.531 618.503 C 722.607 613.803 712.729 613.998 706.496 611.613 L 706.387 610.244 C 712.344 600.071 730.035 590.049 738.854 580.918 C 751.485 567.841 758.277 550.978 775.468 544.048 z"/>
<path transform="translate(0,0)" fill="rgb(204,143,62)" d="M 678.957 425.238 C 698.034 424.862 703.332 432.134 718.321 444.151 C 726.035 450.336 744.405 462.613 745.571 473.484 C 745.215 490.774 733.633 512.398 725.136 526.891 C 713.35 512.24 714.523 512.682 707.318 497.38 C 704.549 494.539 695.265 458.006 692.888 450.541 C 689.819 460.312 700.591 473.964 697.246 489.322 L 697.068 490.12 C 696.118 487.002 694.75 477.832 694.059 473.979 C 691.714 460.898 689.417 450.615 684.643 438.135 C 682.675 434.736 680.456 429.009 678.957 425.238 z"/>
<path transform="translate(0,0)" fill="rgb(73,63,19)" d="M 684.643 438.135 C 697.131 441.848 704.711 485.874 707.318 497.38 C 704.549 494.539 695.265 458.006 692.888 450.541 C 689.819 460.312 700.591 473.964 697.246 489.322 L 697.068 490.12 C 696.118 487.002 694.75 477.832 694.059 473.979 C 691.714 460.898 689.417 450.615 684.643 438.135 z"/>
<path transform="translate(0,0)" fill="rgb(204,143,62)" d="M 557.183 556.02 C 550.18 543.592 531.076 518.163 527.539 507.161 C 520.791 486.168 557.154 443.218 577.917 437.696 C 577.375 439.915 576.627 444.081 575.364 445.733 L 574.435 444.888 C 571.511 449.467 567.848 465.231 566.57 471.156 C 562.086 505.955 571.73 523.268 557.183 556.02 z"/>
<path transform="translate(0,0)" fill="rgb(204,143,62)" d="M 652.733 811.707 L 653.747 812.838 C 654.867 822.171 654.005 858.251 647.688 863.746 C 642.684 864.687 635.229 863.29 629.971 862.604 C 627.287 856.538 626.811 844.206 626.377 837.423 C 636.225 829.006 645.328 822.477 652.733 811.707 z"/>
<path transform="translate(0,0)" fill="rgb(205,175,138)" fill-opacity="0.988235" d="M 700.157 726.122 C 695.251 721.254 691.89 721.434 690.422 713.996 C 692.314 709.313 700.604 709.273 702.927 714.88 L 700.157 726.122 z"/>
<path transform="translate(0,0)" fill="rgb(37,116,166)" d="M 152.417 448.535 C 141.969 461.237 124.244 476.744 107.447 478.628 C 91.6937 480.396 75.129 467.075 74.113 451.152 C 73.5839 442.861 76.9935 430.748 82.5058 423.839 C 97.4005 408.749 113.908 395.834 131.33 383.825 C 137.777 379.381 145.4 370.495 151.381 366.861 C 168.266 356.793 180.467 343.331 194.708 330.194 C 202.372 323.124 213.048 316.948 220.975 309.93 C 240.166 292.942 260.585 277.734 280.709 261.924 C 288.285 255.971 294.408 246.037 302.187 240.049 C 318.216 227.963 334.058 215.589 350.179 203.626 C 354.03 200.768 357.96 197.897 361.641 194.844 L 438.945 131.394 C 453.757 119.331 467.023 106.604 483.388 95.9252 C 523.592 69.6916 556.149 106.658 583.8 131.905 C 593.033 140.336 608.209 146.638 616.83 156.981 C 632.86 172.293 667.827 200.971 686.361 211.846 C 687.631 193.941 687.949 176.487 688.077 158.719 C 688.145 149.21 693.129 141.229 702.946 141.141 C 727.963 140.917 757.597 138.949 782.202 141.417 C 783.615 144.287 787.922 152.777 788.23 155.349 C 792.182 188.353 791.102 228.438 790.094 261.57 C 788.646 309.177 793.356 305.584 829.337 331.418 C 852.928 348.356 878.374 374.024 901.843 392.069 C 915.016 402.828 932.897 413.829 943.77 427.443 C 948.475 433.335 951.363 448.803 948.372 456.509 C 944.79 465.74 939.993 468.345 934.128 475.209 C 923.765 479.144 915.515 480.807 904.759 475.598 C 895.917 471.315 878.138 457.623 871.281 450.729 C 872.722 468.629 871.891 495.971 871.86 514.395 L 871.684 627.628 L 871.702 732.561 C 871.852 760.87 873.485 797.152 868.751 825.127 C 867.998 829.58 850.281 853.778 846.235 858.97 C 834.355 874.211 816.573 874.907 798.991 876.703 C 795.362 877.074 788.962 877.056 785.683 877.548 C 782.265 874.259 782.403 851.541 780.481 846.133 C 778.323 840.06 773.766 833.905 771.387 827.584 L 772.835 826.223 C 786.971 822.534 793.964 827.744 808.524 819.029 C 819.768 802.241 817.241 789.496 818.268 770.528 C 819.594 746.039 818.348 722.319 818.073 697.922 L 817.845 570.729 L 817.949 467.894 C 818.072 448.782 819.611 423.505 817.136 404.662 C 803.823 395.405 792.831 384.979 780.282 375.028 C 749.033 350.25 718.175 322.899 687.252 297.837 L 573.105 204.103 C 551.31 186.131 532.882 174.073 512.805 153.904 C 494.289 170.001 474.075 185.91 455.468 202.272 C 439.076 216.685 417.891 228.979 401.389 243.809 C 395.164 248.877 390.591 256.608 384.171 262.003 C 367.822 275.743 350.268 287.457 333.193 300.135 C 326.92 304.792 321.49 314.216 315.174 319.135 C 304.099 327.244 292.286 333.666 281.78 343.068 C 271.056 352.668 259.651 361.683 248.756 371.044 C 242.968 376.018 237.201 383.821 231.415 388.689 C 225.208 393.911 215.876 398.009 210.001 403.698 C 207.361 406.254 207.015 412.346 206.82 416.117 C 205.38 443.946 206.159 472.234 206.195 500.107 L 205.771 650.996 C 219.864 650.313 257.248 650.234 271.105 652.132 C 280.047 658.113 276.952 663.052 273.262 671.877 C 272.52 673.65 269.39 675.471 267.548 675.574 C 234.639 677.415 201.431 675.091 168.4 676.877 C 159.281 677.369 149.441 675.835 140.273 676.178 C 129.226 676.856 117.511 676.36 106.616 677.13 C 94.5686 677.982 85.5603 665.91 90.5543 655.585 C 99.5797 648.48 138.141 651.136 152.34 649.737 C 151.581 636.313 152.938 617.145 153.034 602.971 L 152.803 511.002 C 152.826 490.594 153.643 468.849 152.417 448.535 z"/>
<path transform="translate(0,0)" fill="rgb(37,116,166)" d="M 149.118 802.213 C 137.369 801.026 109.026 801.227 100.804 795.578 C 100.026 794.421 99.6313 793.555 99.5129 792.161 C 99.1832 788.279 99.9159 783.855 102.621 780.877 C 110.782 771.895 188.603 776.784 204.349 775.768 C 206.816 795.023 206.879 805.755 216.237 823.228 C 228.538 825.963 241.011 824.997 253.86 826.278 L 254.287 827.958 C 241.606 846.887 240.671 853.837 237.465 876.699 C 188.83 880.807 157.681 847.7 149.118 802.213 z"/>
<path transform="translate(0,0)" fill="rgb(162,181,192)" fill-opacity="0.988235" d="M 484.845 979.46 L 764.397 980.983 C 793.538 980.937 823.035 979.535 852.177 979.732 C 862.423 979.801 904.567 977.168 910.711 984.968 C 911.25 988.106 911.488 986.876 909.821 989.581 C 894.448 997.024 790.949 990.241 765.25 990.928 C 746.832 991.634 728.653 991.559 710.237 991.424 C 586.894 990.519 463.395 993.67 340.127 990.949 C 337.346 990.888 335.691 988.065 334.455 986.149 C 334.557 980.603 340.257 979.622 345.004 979.663 C 391.249 980.067 438.636 981.266 484.845 979.46 z"/>
<path transform="translate(0,0)" fill="rgb(14,70,100)" d="M 148.401 714.419 C 159.264 712.906 183.219 714.732 194.565 714.839 C 215.585 715.038 234.745 714.582 255.592 717.341 C 255.234 722.974 254.883 732.008 250.842 736.379 C 244.217 743.542 150.433 740.905 136.039 740.945 C 103.398 741.104 67.2759 742.504 35.2613 738.93 C 31.9024 733.066 25.7136 724.681 31.6782 718.216 C 33.2171 716.548 42.9451 715.621 45.6763 715.577 C 79.7476 715.03 114.388 716.776 148.401 714.419 z"/>
<path transform="translate(0,0)" fill="rgb(162,181,192)" d="M 147.832 979.446 C 162.421 978.24 260.038 979.411 267.043 982.151 C 267.915 982.492 268.713 984.178 268.983 985.039 C 269.676 987.249 269.107 989.202 267.985 991.112 C 264.313 993.115 240.01 992.222 233.866 992.146 C 216.169 992.115 120.378 995.902 113.641 990.067 C 111.911 986.842 111.905 986.356 111.919 982.749 C 115.215 979.594 140.911 979.763 147.832 979.446 z"/>
</svg>